<svg width="45" height="45" viewBox="0 0 45 45" fill="none" xmlns="http://www.w3.org/2000/svg">
<path d="M18.75 33.75C22.0781 33.7493 25.3103 32.6352 27.9319 30.585L36.1744 38.8275L38.8256 36.1763L30.5831 27.9338C32.6344 25.3119 33.7492 22.0789 33.75 18.75C33.75 10.4794 27.0206 3.75 18.75 3.75C10.4794 3.75 3.75 10.4794 3.75 18.75C3.75 27.0206 10.4794 33.75 18.75 33.75ZM18.75 7.5C24.9544 7.5 30 12.5456 30 18.75C30 24.9544 24.9544 30 18.75 30C12.5456 30 7.5 24.9544 7.5 18.75C7.5 12.5456 12.5456 7.5 18.75 7.5Z" fill="#958B8B"/>
<path d="M21.3974 16.0988C22.108 16.8113 22.4999 17.7525 22.4999 18.75H26.2499C26.2516 17.7646 26.0579 16.7886 25.6801 15.8784C25.3022 14.9683 24.7478 14.1421 24.0487 13.4475C21.2099 10.6125 16.288 10.6125 13.4512 13.4475L16.0987 16.1025C17.5237 14.6813 19.9799 14.685 21.3974 16.0988Z" fill="#958B8B"/>
</svg>
