<svg width="24" height="24" viewBox="0 0 24 24" fill="none" xmlns="http://www.w3.org/2000/svg">
<path d="M12 12.5C10.067 12.5 8.5 14.067 8.5 16C8.5 17.933 10.067 19.5 12 19.5C13.933 19.5 15.5 17.933 15.5 16C15.5 14.067 13.933 12.5 12 12.5ZM10.5 16C10.5 15.1716 11.1716 14.5 12 14.5C12.8284 14.5 13.5 15.1716 13.5 16C13.5 16.8284 12.8284 17.5 12 17.5C11.1716 17.5 10.5 16.8284 10.5 16Z" fill="currentColor"/>
<path d="M18.5525 4.80313L15.071 0L2.2688 10.0632L1.55816 10.0567L1.55806 10.0669H1V23H24V10.0669H22.9467L20.8501 4.03249L18.5525 4.80313ZM20.6318 10.0669H9.64857L17.8291 7.32304L19.4959 6.79805L20.6318 10.0669ZM16.3881 5.52908L7.94325 8.36159L14.6309 3.10477L16.3881 5.52908ZM3.19048 18.8707V14.194C4.12407 13.8692 4.86401 13.1411 5.19398 12.2224H19.8055C20.1355 13.1414 20.8756 13.8698 21.8095 14.1945V18.8729C20.8759 19.1977 20.136 19.9258 19.806 20.8445H5.19626C4.8661 19.9246 4.12525 19.1956 3.19048 18.8707Z" fill="currentColor"/>
</svg>
