<svg width="24" height="24" viewBox="0 0 24 24" fill="none" xmlns="http://www.w3.org/2000/svg">
<path d="M17.9452 14.277C17.5863 12.9758 16.8103 11.8283 15.7365 11.0106C14.6626 10.1928 13.3501 9.75 12.0003 9.75C10.6505 9.75 9.33796 10.1928 8.26408 11.0106C7.19021 11.8283 6.41428 12.9758 6.05534 14.277L5.19996 17.3778C5.04638 17.9345 5.02347 18.5192 5.13301 19.0863C5.24255 19.6533 5.48158 20.1874 5.83147 20.6469C6.18136 21.1064 6.63265 21.4788 7.15015 21.7352C7.66765 21.9916 8.23738 22.125 8.81492 22.125H15.1856C15.7632 22.125 16.3329 21.9916 16.8504 21.7352C17.3679 21.4788 17.8192 21.1064 18.1691 20.6469C18.519 20.1874 18.758 19.6533 18.8675 19.0863C18.9771 18.5192 18.9542 17.9345 18.8006 17.3778L17.9452 14.277ZM16.9757 19.738C16.7667 20.0147 16.4961 20.2389 16.1854 20.3929C15.8747 20.5468 15.5324 20.6263 15.1856 20.625H8.81492C8.46839 20.625 8.12655 20.545 7.81604 20.3912C7.50553 20.2373 7.23475 20.0138 7.02481 19.7382C6.81488 19.4625 6.67146 19.142 6.60573 18.8018C6.54001 18.4615 6.55376 18.1107 6.64592 17.7767L7.50129 14.6759C7.77293 13.6912 8.36014 12.8228 9.17282 12.204C9.9855 11.5851 10.9788 11.25 12.0003 11.25C13.0218 11.25 14.015 11.5851 14.8277 12.204C15.6404 12.8228 16.2276 13.6912 16.4992 14.6759L17.3546 17.7767C17.4481 18.1106 17.4625 18.4617 17.3968 18.8021C17.331 19.1426 17.1869 19.4629 16.9757 19.738Z" fill="currentColor"/>
<path d="M6.84864 10.7958C6.97914 9.98014 6.80608 9.10699 6.36114 8.33655C5.91621 7.56611 5.24646 6.97966 4.47503 6.68486C3.64891 6.36935 2.80628 6.4196 2.10157 6.82629C0.700617 7.63516 0.331945 9.62871 1.27989 11.2703C1.72469 12.0407 2.39449 12.6273 3.16591 12.922C3.50763 13.0551 3.87086 13.1246 4.23761 13.1269C4.69452 13.1285 5.1437 13.009 5.53938 12.7805C6.24368 12.3738 6.70868 11.6689 6.84864 10.7958ZM5.36739 10.5587C5.30036 10.9772 5.09505 11.3049 4.78928 11.4815C4.48352 11.658 4.09708 11.6719 3.70099 11.5207C3.25038 11.3486 2.85185 10.9933 2.57875 10.5203C2.05375 9.6109 2.17853 8.51402 2.85157 8.12533C3.02076 8.02932 3.21237 7.97986 3.40689 7.98199C3.58937 7.98388 3.76996 8.0191 3.93977 8.08591C4.39038 8.25808 4.78891 8.61335 5.062 9.08637C5.3351 9.55938 5.44352 10.0824 5.36739 10.5587Z" fill="currentColor"/>
<path d="M7.01103 7.68829C7.54362 8.11406 8.15182 8.33578 8.76687 8.33573C8.9511 8.33567 9.13479 8.31586 9.31479 8.27662C10.8956 7.93298 11.854 6.14648 11.4514 4.29422C11.2625 3.42487 10.8032 2.66217 10.1582 2.1465C9.46746 1.59431 8.64931 1.3853 7.8544 1.55817C6.27369 1.90177 5.31523 3.68827 5.71784 5.54053C5.9068 6.40992 6.36608 7.17262 7.01103 7.68829ZM8.17296 3.02395C8.24585 3.00824 8.32021 3.00038 8.39478 3.00052C8.67359 3.00052 8.96037 3.10959 9.22151 3.31837C9.59824 3.61955 9.8696 4.07934 9.98557 4.61311C10.2087 5.63944 9.7556 6.64598 8.99618 6.81108C8.65114 6.88608 8.27876 6.78164 7.94773 6.51693C7.571 6.21572 7.29964 5.75592 7.18367 5.2222C6.9605 4.19559 7.41359 3.18905 8.17296 3.02395Z" fill="currentColor"/>
<path d="M21.8987 6.82628C21.1943 6.4196 20.3512 6.36935 19.5252 6.68486C18.7538 6.97956 18.084 7.56611 17.6392 8.33655C17.1944 9.10699 17.0213 9.98031 17.1517 10.7958C17.2915 11.6689 17.7564 12.3738 18.461 12.7805C18.8566 13.009 19.3058 13.1285 19.7627 13.1268C20.1295 13.1246 20.4927 13.0551 20.8344 12.922C21.6059 12.6273 22.2757 12.0407 22.7205 11.2703C23.6683 9.62871 23.2996 7.63516 21.8987 6.82628ZM21.4215 10.5203C21.1484 10.9933 20.7499 11.3486 20.2993 11.5207C19.9034 11.672 19.5168 11.6581 19.2111 11.4814C18.9053 11.3048 18.7001 10.9772 18.633 10.5587C18.5567 10.0824 18.6651 9.55957 18.9382 9.08678C19.2114 8.614 19.6099 8.2585 20.0605 8.08633C20.2303 8.01946 20.4109 7.98417 20.5934 7.98222C20.7879 7.98009 20.9795 8.02955 21.1487 8.12556C21.8217 8.51392 21.9466 9.61066 21.4215 10.5203Z" fill="currentColor"/>
<path d="M14.6855 8.27654C14.8655 8.31578 15.0492 8.3356 15.2334 8.33565C15.8484 8.33565 16.4569 8.11398 16.9893 7.68822C17.6342 7.17259 18.0935 6.40984 18.2824 5.5405C18.6851 3.68823 17.7266 1.90173 16.1459 1.55814C15.351 1.38536 14.5328 1.59423 13.8421 2.14647C13.1971 2.66209 12.7378 3.42484 12.5489 4.29414C12.1463 6.1464 13.1047 7.9329 14.6855 8.27654ZM14.0147 4.6128C14.1307 4.07903 14.402 3.61905 14.7788 3.31806C15.04 3.10928 15.3267 3.0002 15.6055 3.0002C15.6801 3.00007 15.7544 3.00792 15.8273 3.02364C16.5867 3.18873 17.0398 4.19551 16.8167 5.22161C16.7006 5.75537 16.4293 6.21536 16.0526 6.51639C15.7217 6.78104 15.3495 6.88548 15.0042 6.81053C14.2447 6.64567 13.7916 5.63898 14.0147 4.6128Z" fill="currentColor"/>
</svg>
